<svg xmlns="http://www.w3.org/2000/svg" viewBox="0 0 404.88 82.94"><defs><style>.cls-1{fill:#335eea;}.cls-2{fill:#fff;}</style></defs><g id="Layer_2" data-name="Layer 2"><g id="Layer_1-2" data-name="Layer 1"><path class="cls-1" d="M.83.57a1.74,1.74,0,0,1,.56.52L33,40.59l32.7,40.89a1.15,1.15,0,0,1,.14.17.63.63,0,0,1-.29,1l-.08,0h-31l-.09,0a2.73,2.73,0,0,1-1.86-1.09l-6.4-8L3.88,45.87l-3.17-4a2.79,2.79,0,0,1-.62-1.28A2,2,0,0,0,0,40.4V1.06A1.28,1.28,0,0,1,.54.57Z"/><path class="cls-1" d="M99.52.57a.82.82,0,0,1,.45.87V39.9a4.09,4.09,0,0,1,0,.78,2.69,2.69,0,0,1-.59,1.21l-5.44,6.8c-1.35,1.68-2.68,3.36-4,5a4,4,0,0,1-.64.66,2.52,2.52,0,0,1-1.58.56H56.87a.6.6,0,0,1-.55-.34.63.63,0,0,1,.06-.67l.12-.16L95.43,5.11q1.59-2,3.2-4a1.85,1.85,0,0,1,.54-.54Z"/><path class="cls-2" d="M.54.57A1.28,1.28,0,0,0,0,1.06V.57Z"/><path class="cls-1" d="M110.73.66h7a2.22,2.22,0,0,1,1.81.88l19.73,25.64V1.32a.63.63,0,0,1,.19-.47.63.63,0,0,1,.47-.19h5.64a.64.64,0,0,1,.47.19.63.63,0,0,1,.19.47v37a.58.58,0,0,1-.66.66h-5.2a2.2,2.2,0,0,1-1.81-.88L110.35,1.43a.37.37,0,0,1-.06-.5A.5.5,0,0,1,110.73.66Z"/><path class="cls-1" d="M154.08,38.47v-37a.63.63,0,0,1,.19-.47.64.64,0,0,1,.47-.19H160a2.2,2.2,0,0,1,1.8.88L190,38.36a.49.49,0,0,1,0,.52.47.47,0,0,1-.46.25h-7a2.22,2.22,0,0,1-1.81-.88l-9.48-12.38-9.54,12.38a2.2,2.2,0,0,1-1.8.88h-5.21a.64.64,0,0,1-.47-.19A.63.63,0,0,1,154.08,38.47Zm7-25.86V27.29L166.74,20Z"/><path class="cls-1" d="M195,.77h5.65c.47,0,.71.22.71.66V32.17h15.35a.47.47,0,0,1,.46.28.44.44,0,0,1,0,.49L213,38.25a2.16,2.16,0,0,1-1.75.88H195a.62.62,0,0,1-.46-.19.63.63,0,0,1-.19-.47v-37A.63.63,0,0,1,194.5,1,.62.62,0,0,1,195,.77Z"/><path class="cls-1" d="M219.9,19.79a19.91,19.91,0,0,1,5.78-14.17A19.27,19.27,0,0,1,232,1.45,19.52,19.52,0,0,1,239.74,0a19.86,19.86,0,0,1,7.78,1.65A19.59,19.59,0,0,1,253.79,6a20.4,20.4,0,0,1,4.2,6.38,19.25,19.25,0,0,1,1.48,7.75,19.87,19.87,0,0,1-1.65,7.79,20.19,20.19,0,0,1-4.3,6.3,19.59,19.59,0,0,1-6.33,4.19,19.91,19.91,0,0,1-7.78,1.51,19.25,19.25,0,0,1-13.92-5.84,19.5,19.5,0,0,1-4.11-6.38A20.86,20.86,0,0,1,219.9,19.79Zm7,.27a12.65,12.65,0,0,0,1.05,5.1,14,14,0,0,0,2.79,4.22,13.31,13.31,0,0,0,4.06,2.85,11.53,11.53,0,0,0,9.81-.11,13.29,13.29,0,0,0,4-2.94,13.6,13.6,0,0,0,2.72-4.27,13.07,13.07,0,0,0,.93-5.12,12.82,12.82,0,0,0-1-5.1,13.56,13.56,0,0,0-2.8-4.19,13.39,13.39,0,0,0-4.08-2.83,11.56,11.56,0,0,0-9.78.09,12.57,12.57,0,0,0-4,2.9,14,14,0,0,0-2.69,4.25A13.42,13.42,0,0,0,226.91,20.06Z"/><path class="cls-1" d="M265.77,1.32A.63.63,0,0,1,266,.85a.63.63,0,0,1,.47-.19h28.93a.64.64,0,0,1,.47.19.63.63,0,0,1,.19.47v8a2.13,2.13,0,0,1-.49,1.37l-8.66,11.35,12.38,16.16a.49.49,0,0,1,0,.52.44.44,0,0,1-.41.25h-7a2.23,2.23,0,0,1-1.81-.88l-12-15.61a.54.54,0,0,1,0-.83L288.9,7.62H272.78V38.36c0,.44-.23.66-.71.66h-5.64a.65.65,0,0,1-.66-.66Z"/><path class="cls-1" d="M304.4.77h5.21a2.22,2.22,0,0,1,1.81.88l28.17,36.71a.41.41,0,0,1,.08.5.48.48,0,0,1-.47.27h-6.95a2.2,2.2,0,0,1-1.81-.88L321,25.87l-9.54,12.38a2.22,2.22,0,0,1-1.81.88H304.4a.62.62,0,0,1-.46-.19.63.63,0,0,1-.19-.47v-37a.63.63,0,0,1,.19-.47A.62.62,0,0,1,304.4.77Zm6.36,11.84V27.29L316.41,20ZM334,1.43c0-.44.24-.66.71-.66h5.21a2.16,2.16,0,0,1,1.75.88L361.4,27.29V1.43a.58.58,0,0,1,.66-.66h5.64q.72,0,.72.66v37a.62.62,0,0,1-.22.47.75.75,0,0,1-.5.19h-5.2a2.2,2.2,0,0,1-1.81-.88L341,12.61v15a.43.43,0,0,1-.33.44.46.46,0,0,1-.54-.16l-5.65-7.35a2.08,2.08,0,0,1-.49-1.37Z"/><path class="cls-1" d="M374.44,1.32a.67.67,0,0,1,.19-.47.64.64,0,0,1,.47-.19h23.78a2.2,2.2,0,0,1,1.81.88l4.06,5.31a.45.45,0,0,1,.08.52.48.48,0,0,1-.46.25H392.14V38.36a.58.58,0,0,1-.65.66h-5.65a.58.58,0,0,1-.66-.66V7.62H375.1a.64.64,0,0,1-.47-.19.67.67,0,0,1-.19-.47Z"/><path class="cls-1" d="M111.64,69.36a13.25,13.25,0,0,1,1-5.29,14,14,0,0,1,2.85-4.26A12.87,12.87,0,0,1,119.78,57,13.12,13.12,0,0,1,125,56,13.26,13.26,0,0,1,135,60.48a.49.49,0,0,1,.09.33.45.45,0,0,1-.16.3L132,63.59a.49.49,0,0,1-.33.09.42.42,0,0,1-.3-.17,9.41,9.41,0,0,0-2.88-2.24,7.58,7.58,0,0,0-3.59-.79,8,8,0,0,0-3.29.76,8.52,8.52,0,0,0-2.71,2A9.52,9.52,0,0,0,117,66.07a9.12,9.12,0,0,0-.66,3.47,8.62,8.62,0,0,0,.7,3.48A9.33,9.33,0,0,0,119,75.87a8.8,8.8,0,0,0,2.73,1.91,8.3,8.3,0,0,0,3.33.68,8,8,0,0,0,3.48-.85,8.65,8.65,0,0,0,2.81-2.22.46.46,0,0,1,.3-.17.4.4,0,0,1,.33.13l2.93,2.48a.43.43,0,0,1,.16.3.49.49,0,0,1-.09.33,13.58,13.58,0,0,1-4.48,3.31,13,13,0,0,1-5.66,1.17,12.8,12.8,0,0,1-5.2-1.06,12.9,12.9,0,0,1-7-7.19A14.08,14.08,0,0,1,111.64,69.36Z"/><path class="cls-1" d="M138.17,69.36a13.25,13.25,0,0,1,1.05-5.29,14,14,0,0,1,2.85-4.26A12.87,12.87,0,0,1,146.31,57a13.12,13.12,0,0,1,5.25-1,13.36,13.36,0,0,1,5.53,1.22,13.57,13.57,0,0,1,4.39,3.26.49.49,0,0,1,.09.33.42.42,0,0,1-.17.3l-2.92,2.48a.49.49,0,0,1-.33.09.42.42,0,0,1-.3-.17A9.41,9.41,0,0,0,155,61.27a7.58,7.58,0,0,0-3.59-.79,8.13,8.13,0,0,0-3.3.76,8.59,8.59,0,0,0-2.7,2,9.33,9.33,0,0,0-1.81,2.87,9.13,9.13,0,0,0-.67,3.47,8.63,8.63,0,0,0,.71,3.48,9.3,9.3,0,0,0,1.88,2.85,8.84,8.84,0,0,0,2.74,1.91,8.3,8.3,0,0,0,3.33.68,8,8,0,0,0,3.48-.85,8.65,8.65,0,0,0,2.81-2.22.46.46,0,0,1,.3-.17.4.4,0,0,1,.33.13l2.92,2.48a.4.4,0,0,1,.17.3.49.49,0,0,1-.09.33A13.58,13.58,0,0,1,157,81.77a13,13,0,0,1-5.66,1.17,12.8,12.8,0,0,1-5.2-1.06,12.9,12.9,0,0,1-7-7.19A14.08,14.08,0,0,1,138.17,69.36Z"/><path class="cls-1" d="M164.7,69.36a13.45,13.45,0,0,1,3.9-9.57A13.1,13.1,0,0,1,178.09,56a13.81,13.81,0,0,1,5.07,1,12.78,12.78,0,0,1,4.14,2.72.38.38,0,0,1,0,.59L185,63.4a.36.36,0,0,1-.31.2.37.37,0,0,1-.35-.16,8.88,8.88,0,0,0-2.85-2.18,8.09,8.09,0,0,0-6.85,0,8.9,8.9,0,0,0-4.51,4.83,9.27,9.27,0,0,0-.67,3.49,8.54,8.54,0,0,0,.71,3.44A9.12,9.12,0,0,0,172,75.83a8.9,8.9,0,0,0,2.74,1.93,8,8,0,0,0,3.33.7,8.07,8.07,0,0,0,2.76-.55,9.18,9.18,0,0,0,2.4-1.41,8.9,8.9,0,0,0,1.87-2.09,9,9,0,0,0,1.15-2.61h-7.22a.29.29,0,0,1-.27-.17.32.32,0,0,1,0-.35l2.37-3.48a1.49,1.49,0,0,1,1.26-.66h8.77c.07.42.13.83.17,1.22a8.24,8.24,0,0,1,0,1.22,13.32,13.32,0,0,1-8.25,12.34,13.46,13.46,0,0,1-5.25,1,12.8,12.8,0,0,1-5.2-1.06,13,13,0,0,1-4.2-2.88,13.18,13.18,0,0,1-2.77-4.31A14.08,14.08,0,0,1,164.7,69.36Z"/><path class="cls-1" d="M196.07,77.42h4a.43.43,0,0,1,.48.49V82a.42.42,0,0,1-.48.48h-4a.42.42,0,0,1-.48-.48V77.91A.43.43,0,0,1,196.07,77.42Z"/></g></g></svg>